<svg xmlns="http://www.w3.org/2000/svg" viewBox="0 0 1024 1024"><path d="M 735,797 Z" fill="black"/><path d="M 569,640 L 568,641 L 567,641 L 566,642 L 565,642 L 563,644 L 563,645 L 562,646 L 562,651 L 561,652 L 561,828 L 562,829 L 562,832 L 563,833 L 563,834 L 565,836 L 566,836 L 567,837 L 569,837 L 570,838 L 621,838 L 622,837 L 624,837 L 628,833 L 628,831 L 629,830 L 629,823 L 630,822 L 629,821 L 629,814 L 630,813 L 630,810 L 629,809 L 629,807 L 630,806 L 630,802 L 629,801 L 630,800 L 629,799 L 629,798 L 630,797 L 630,796 L 629,795 L 630,794 L 629,793 L 629,790 L 630,789 L 630,788 L 629,787 L 630,786 L 630,782 L 629,781 L 630,780 L 629,779 L 629,778 L 630,777 L 630,776 L 629,775 L 630,774 L 629,773 L 629,772 L 630,771 L 630,770 L 629,769 L 630,768 L 630,764 L 629,763 L 629,760 L 630,759 L 630,757 L 629,756 L 629,750 L 630,749 L 630,746 L 629,745 L 630,744 L 629,743 L 629,742 L 630,741 L 630,736 L 629,735 L 629,734 L 630,733 L 630,727 L 629,726 L 630,725 L 629,724 L 629,721 L 630,720 L 630,716 L 629,715 L 629,711 L 630,710 L 630,704 L 629,703 L 629,702 L 630,701 L 630,698 L 629,697 L 629,696 L 630,695 L 629,694 L 629,693 L 630,692 L 629,691 L 630,690 L 629,689 L 629,688 L 630,687 L 629,686 L 630,685 L 630,682 L 629,681 L 630,680 L 630,679 L 629,678 L 629,673 L 630,672 L 630,671 L 629,670 L 629,669 L 630,668 L 630,666 L 629,665 L 629,660 L 630,659 L 629,658 L 629,657 L 630,656 L 629,655 L 629,647 L 628,646 L 628,645 L 624,641 L 623,641 L 622,640 L 604,640 L 603,641 L 593,641 L 592,640 Z" fill="black"/><path d="M 738,632 L 737,633 L 727,633 L 726,634 L 721,634 L 720,635 L 715,635 L 714,636 L 711,636 L 710,637 L 708,637 L 707,638 L 705,638 L 704,639 L 702,639 L 701,640 L 699,640 L 698,641 L 697,641 L 696,642 L 695,642 L 694,643 L 693,643 L 692,644 L 691,644 L 690,645 L 689,645 L 688,646 L 687,646 L 685,648 L 684,648 L 681,651 L 680,651 L 671,660 L 671,661 L 668,664 L 668,665 L 667,666 L 667,667 L 666,668 L 666,669 L 664,671 L 664,673 L 663,674 L 663,675 L 662,676 L 662,678 L 661,679 L 661,682 L 660,683 L 660,688 L 659,689 L 659,707 L 660,708 L 660,712 L 661,713 L 661,716 L 662,717 L 662,720 L 663,721 L 663,722 L 664,723 L 664,725 L 665,726 L 665,727 L 667,729 L 667,730 L 668,731 L 668,732 L 671,735 L 671,736 L 677,742 L 678,742 L 681,745 L 682,745 L 684,747 L 685,747 L 686,748 L 687,748 L 688,749 L 689,749 L 690,750 L 691,750 L 692,751 L 694,751 L 695,752 L 696,752 L 697,753 L 700,753 L 701,754 L 703,754 L 704,755 L 706,755 L 707,756 L 710,756 L 711,757 L 714,757 L 715,758 L 719,758 L 720,759 L 724,759 L 725,760 L 728,760 L 729,761 L 733,761 L 734,762 L 738,762 L 739,763 L 743,763 L 744,764 L 747,764 L 748,765 L 752,765 L 753,766 L 755,766 L 756,767 L 758,767 L 759,768 L 760,768 L 761,769 L 762,769 L 767,774 L 767,775 L 768,776 L 768,787 L 767,788 L 767,789 L 762,794 L 761,794 L 760,795 L 759,795 L 758,796 L 756,796 L 755,797 L 752,797 L 751,798 L 747,798 L 746,799 L 725,799 L 724,798 L 719,798 L 718,797 L 713,797 L 712,796 L 708,796 L 707,795 L 704,795 L 703,794 L 700,794 L 699,793 L 697,793 L 696,792 L 694,792 L 693,791 L 690,791 L 689,790 L 687,790 L 686,789 L 685,789 L 684,788 L 682,788 L 681,787 L 680,787 L 679,786 L 678,786 L 677,785 L 675,785 L 674,784 L 673,784 L 672,783 L 671,783 L 670,782 L 664,782 L 663,783 L 662,783 L 660,785 L 660,810 L 659,811 L 660,812 L 659,813 L 660,814 L 660,815 L 659,816 L 659,820 L 660,821 L 660,825 L 665,830 L 666,830 L 667,831 L 668,831 L 669,832 L 671,832 L 672,833 L 673,833 L 674,834 L 676,834 L 677,835 L 679,835 L 680,836 L 682,836 L 683,837 L 686,837 L 687,838 L 690,838 L 691,839 L 695,839 L 696,840 L 701,840 L 702,841 L 708,841 L 709,842 L 717,842 L 718,843 L 745,843 L 746,842 L 753,842 L 754,841 L 760,841 L 761,840 L 765,840 L 766,839 L 770,839 L 771,838 L 773,838 L 774,837 L 777,837 L 778,836 L 780,836 L 781,835 L 783,835 L 784,834 L 785,834 L 786,833 L 788,833 L 789,832 L 790,832 L 791,831 L 792,831 L 793,830 L 794,830 L 795,829 L 796,829 L 797,828 L 798,828 L 800,826 L 801,826 L 803,824 L 804,824 L 807,821 L 808,821 L 815,814 L 815,813 L 818,810 L 818,809 L 820,807 L 820,806 L 821,805 L 821,804 L 822,803 L 822,802 L 823,801 L 823,800 L 824,799 L 824,797 L 825,796 L 825,795 L 826,794 L 826,791 L 827,790 L 827,787 L 828,786 L 828,764 L 827,763 L 827,759 L 826,758 L 826,756 L 825,755 L 825,753 L 824,752 L 824,751 L 823,750 L 823,749 L 822,748 L 822,747 L 821,746 L 821,745 L 819,743 L 819,742 L 810,733 L 809,733 L 806,730 L 805,730 L 804,729 L 803,729 L 802,728 L 801,728 L 800,727 L 799,727 L 798,726 L 797,726 L 796,725 L 795,725 L 794,724 L 792,724 L 791,723 L 789,723 L 788,722 L 786,722 L 785,721 L 783,721 L 782,720 L 780,720 L 779,719 L 776,719 L 775,718 L 772,718 L 771,717 L 768,717 L 767,716 L 763,716 L 762,715 L 759,715 L 758,714 L 755,714 L 754,713 L 751,713 L 750,712 L 746,712 L 745,711 L 742,711 L 741,710 L 739,710 L 738,709 L 735,709 L 734,708 L 732,708 L 731,707 L 730,707 L 729,706 L 728,706 L 723,701 L 723,700 L 722,699 L 722,697 L 721,696 L 721,691 L 722,690 L 722,687 L 723,686 L 723,685 L 724,684 L 724,683 L 727,680 L 728,680 L 729,679 L 730,679 L 731,678 L 733,678 L 734,677 L 740,677 L 741,676 L 753,676 L 754,677 L 763,677 L 764,678 L 770,678 L 771,679 L 775,679 L 776,680 L 780,680 L 781,681 L 784,681 L 785,682 L 788,682 L 789,683 L 791,683 L 792,684 L 795,684 L 796,685 L 798,685 L 799,686 L 800,686 L 801,687 L 803,687 L 804,688 L 806,688 L 807,689 L 810,689 L 811,690 L 813,690 L 814,689 L 816,689 L 818,687 L 818,650 L 817,649 L 817,648 L 815,646 L 814,646 L 813,645 L 812,645 L 811,644 L 810,644 L 809,643 L 808,643 L 807,642 L 805,642 L 804,641 L 802,641 L 801,640 L 799,640 L 798,639 L 796,639 L 795,638 L 792,638 L 791,637 L 788,637 L 787,636 L 783,636 L 782,635 L 777,635 L 776,634 L 770,634 L 769,633 L 758,633 L 757,632 Z" fill="black"/><path d="M 570,566 L 569,567 L 568,567 L 567,568 L 566,568 L 563,571 L 563,572 L 562,573 L 562,574 L 561,575 L 561,595 L 562,596 L 561,597 L 562,598 L 562,612 L 563,613 L 563,614 L 566,617 L 567,617 L 568,618 L 623,618 L 624,617 L 625,617 L 628,614 L 628,613 L 629,612 L 629,595 L 630,594 L 630,575 L 629,574 L 629,573 L 628,572 L 628,571 L 625,568 L 624,568 L 623,567 L 620,567 L 619,566 Z" fill="black"/><path d="M 456,564 L 454,566 L 453,566 L 452,567 L 452,568 L 450,570 L 450,833 L 453,836 L 454,836 L 455,837 L 457,837 L 458,838 L 509,838 L 510,837 L 512,837 L 516,833 L 516,832 L 517,831 L 517,571 L 516,570 L 516,569 L 512,565 L 511,565 L 510,564 Z" fill="black"/><path d="M 312,136 L 311,137 L 307,137 L 306,138 L 303,138 L 302,139 L 299,139 L 298,140 L 297,140 L 296,141 L 294,141 L 293,142 L 292,142 L 291,143 L 289,143 L 288,144 L 287,144 L 286,145 L 285,145 L 283,147 L 282,147 L 281,148 L 280,148 L 278,150 L 277,150 L 275,152 L 274,152 L 269,157 L 268,157 L 261,164 L 261,165 L 257,169 L 257,170 L 255,172 L 255,173 L 253,175 L 253,176 L 252,177 L 252,178 L 250,180 L 250,181 L 249,182 L 249,183 L 248,184 L 248,186 L 247,187 L 247,188 L 246,189 L 246,191 L 245,192 L 245,194 L 244,195 L 244,197 L 243,198 L 243,202 L 242,203 L 242,207 L 241,208 L 241,448 L 242,449 L 242,453 L 243,454 L 243,457 L 244,458 L 244,460 L 245,461 L 245,463 L 246,464 L 246,466 L 247,467 L 247,468 L 248,469 L 248,470 L 249,471 L 249,473 L 251,475 L 251,476 L 252,477 L 252,478 L 253,479 L 253,480 L 255,482 L 255,483 L 257,485 L 257,486 L 261,490 L 261,491 L 311,541 L 311,542 L 354,585 L 355,585 L 357,587 L 358,587 L 359,588 L 360,588 L 361,589 L 362,589 L 363,590 L 365,590 L 366,591 L 370,591 L 371,592 L 377,592 L 378,591 L 382,591 L 383,590 L 385,590 L 386,589 L 387,589 L 388,588 L 389,588 L 390,587 L 391,587 L 400,578 L 401,578 L 401,577 L 402,576 L 403,576 L 452,527 L 453,527 L 455,525 L 456,525 L 457,524 L 458,524 L 459,523 L 562,523 L 563,522 L 568,522 L 569,521 L 572,521 L 573,520 L 575,520 L 576,519 L 578,519 L 579,518 L 581,518 L 582,517 L 584,517 L 585,516 L 586,516 L 587,515 L 588,515 L 589,514 L 590,514 L 591,513 L 592,513 L 593,512 L 594,512 L 596,510 L 597,510 L 599,508 L 600,508 L 602,506 L 603,506 L 607,502 L 608,502 L 616,494 L 616,493 L 620,489 L 620,488 L 623,485 L 623,484 L 625,482 L 625,481 L 626,480 L 626,479 L 627,478 L 627,477 L 628,476 L 628,475 L 629,474 L 629,473 L 630,472 L 630,471 L 631,470 L 631,469 L 632,468 L 632,466 L 633,465 L 633,463 L 634,462 L 634,460 L 635,459 L 635,455 L 636,454 L 636,450 L 637,449 L 637,207 L 636,206 L 636,202 L 635,201 L 635,198 L 634,197 L 634,194 L 633,193 L 633,191 L 632,190 L 632,189 L 631,188 L 631,186 L 630,185 L 630,184 L 629,183 L 629,182 L 628,181 L 628,180 L 626,178 L 626,177 L 625,176 L 625,175 L 623,173 L 623,172 L 621,170 L 621,169 L 616,164 L 616,163 L 610,157 L 609,157 L 605,153 L 604,153 L 601,150 L 600,150 L 598,148 L 597,148 L 596,147 L 595,147 L 594,146 L 593,146 L 591,144 L 589,144 L 588,143 L 587,143 L 586,142 L 585,142 L 584,141 L 582,141 L 581,140 L 579,140 L 578,139 L 575,139 L 574,138 L 571,138 L 570,137 L 565,137 L 564,136 Z" fill="black"/><path d="M 566,35 Z" fill="black"/></svg>